<?xml version="1.0" standalone="no"?>
<!DOCTYPE svg PUBLIC "-//W3C//DTD SVG 20010904//EN"
 "http://www.w3.org/TR/2001/REC-SVG-20010904/DTD/svg10.dtd">
<svg version="1.0" xmlns="http://www.w3.org/2000/svg"
 width="4096.000000pt" height="4096.000000pt" viewBox="0 0 4096.000000 4096.000000"
 preserveAspectRatio="xMidYMid meet">
<metadata>
Created by potrace 1.14, written by Peter Selinger 2001-2017
</metadata>
<g transform="translate(0.000000,4096.000000) scale(0.100000,-0.100000)"
fill="#000000" stroke="none">
<path d="M210 20480 l0 -20480 20275 0 20275 0 0 20480 0 20480 -20275 0
-20275 0 0 -20480z m18635 10082 c356 -32 792 -119 1090 -217 547 -181 958
-433 1378 -844 490 -480 810 -1082 986 -1853 65 -283 95 -553 111 -983 15
-416 13 -2487 -2 -2508 -12 -16 -456 -17 -7087 -17 -5402 -1 -7077 2 -7087 11
-12 10 -14 43 -12 167 l3 156 25 7 c14 4 2149 8 4745 8 2596 1 4725 5 4732 9
10 6 13 233 13 1007 1 942 0 1000 -16 1012 -15 11 -913 13 -4751 13 l-4732 0
-13 23 c-10 18 -13 408 -13 2005 l0 1984 24 19 c23 19 98 19 5255 16 3620 -3
5268 -7 5351 -15z m13777 -2141 c53 -3 100 -10 105 -14 12 -13 9 -4245 -3
-4257 -15 -15 -4233 -15 -4248 0 -6 6 -13 37 -16 69 -8 80 -2 4170 6 4182 3 6
16 14 28 19 24 10 3981 11 4128 1z m-10929 -6568 c246 -5 312 -9 323 -20 12
-12 14 -240 14 -1526 0 -1394 1 -1514 17 -1537 34 -51 3188 -3200 3205 -3200
9 0 23 9 31 20 8 11 714 723 1570 1582 855 860 1566 1576 1579 1593 l23 30 3
1517 3 1518 22 12 c17 10 458 13 2118 13 2048 0 2097 0 2118 -19 l21 -19 0
-2026 c0 -1410 -3 -2038 -11 -2066 -9 -35 -411 -441 -3192 -3223 -1750 -1751
-3196 -3192 -3213 -3203 -31 -19 -52 -19 -1086 -17 l-1055 3 -39 30 c-21 16
-704 694 -1517 1505 -813 811 -1494 1485 -1513 1496 l-35 21 -1577 6 c-992 3
-1644 10 -1757 17 -656 41 -1339 173 -1738 336 -410 167 -721 364 -942 596
-379 397 -601 903 -684 1563 -65 516 -73 741 -78 2235 -3 858 -8 1329 -14
1335 -13 13 -1198 18 -1674 7 l-340 -7 -5 -3033 c-4 -2681 -7 -3034 -20 -3042
-9 -6 -767 -10 -2001 -10 -1617 0 -1988 2 -2003 13 -10 7 -21 33 -26 58 -4 24
-9 1697 -9 3718 -1 3247 0 3677 14 3697 10 15 27 24 52 27 66 7 13095 7 13416
0z m-11438 -8455 c209 -70 337 -240 365 -487 27 -234 -49 -477 -198 -632 -154
-162 -357 -212 -570 -140 -156 52 -225 114 -298 265 -104 214 -94 456 27 703
40 82 62 113 113 161 90 84 183 133 291 152 70 12 199 2 270 -22z m1002 -30
c73 -27 158 -109 199 -193 25 -53 29 -70 27 -140 -1 -93 -21 -173 -45 -189
-22 -13 -195 40 -208 65 -5 9 -5 43 2 82 9 57 8 73 -6 112 -52 135 -206 75
-206 -80 0 -94 45 -150 217 -267 105 -71 179 -144 210 -208 14 -26 18 -59 18
-135 0 -123 -20 -171 -102 -245 -149 -132 -320 -131 -469 4 -67 60 -174 218
-174 256 0 26 7 33 61 60 90 44 102 42 141 -32 41 -78 123 -163 163 -170 57
-11 145 43 145 89 0 67 -68 150 -210 258 -118 90 -180 157 -222 243 -28 56
-32 76 -33 141 0 66 5 85 36 151 20 41 48 89 62 106 27 32 149 102 202 115 44
12 127 2 192 -23z m607 2 c8 -8 10 -135 8 -448 -2 -366 6 -695 20 -776 6 -34
-23 -41 -127 -30 -53 6 -101 16 -107 22 -45 45 -49 1184 -4 1241 8 11 31 12
105 8 51 -3 99 -11 105 -17z m986 0 c11 -17 14 -1026 3 -1158 -7 -100 -12
-104 -108 -92 -55 7 -73 14 -96 37 -16 16 -67 112 -117 223 -49 107 -110 238
-135 290 -25 52 -54 117 -66 143 -42 97 -46 70 -51 -344 l-5 -384 -70 0 c-106
1 -122 8 -136 58 -22 78 23 1068 52 1144 9 25 10 26 87 19 42 -4 93 -15 112
-24 41 -20 67 -69 130 -242 73 -198 175 -420 198 -428 15 -5 16 89 1 467 -6
156 -8 290 -5 298 9 21 192 15 206 -7z m654 -35 c65 -31 86 -53 125 -132 35
-71 61 -208 61 -325 l0 -78 -47 1 c-83 1 -146 15 -163 37 -11 14 -19 48 -23
106 -6 89 -27 145 -66 180 -21 19 -22 19 -49 0 -40 -30 -95 -147 -128 -275
-25 -98 -29 -133 -29 -249 0 -128 1 -138 28 -193 32 -64 80 -107 121 -107 40
0 93 56 140 146 l41 79 80 3 c112 4 125 0 125 -43 0 -75 -87 -259 -152 -322
-66 -65 -126 -87 -228 -87 -71 0 -95 5 -144 27 -120 55 -184 131 -229 272 -19
61 -22 91 -21 230 0 150 2 168 36 295 19 74 51 167 71 206 103 205 296 303
451 229z m976 6 c15 -28 13 -186 -2 -199 -8 -6 -84 -12 -175 -14 -90 -1 -166
-7 -171 -13 -6 -5 -12 -68 -14 -138 -5 -139 2 -164 46 -153 12 3 70 10 130 16
128 13 133 11 148 -72 17 -89 15 -101 -12 -114 -14 -7 -88 -17 -164 -23 -77
-6 -144 -15 -148 -19 -5 -5 -7 -71 -6 -148 l3 -139 75 3 c41 2 109 10 150 19
136 28 129 28 139 2 4 -13 12 -59 15 -101 l8 -77 -99 -31 -98 -32 -185 5
c-102 4 -195 9 -207 13 -43 12 -46 49 -39 468 6 322 19 694 25 703 10 16 342
55 518 61 43 2 54 -2 63 -17z m1170 -79 c103 -52 169 -176 156 -294 -11 -107
-92 -267 -224 -442 -81 -108 -98 -133 -91 -140 3 -3 65 -6 139 -7 74 -1 143
-6 153 -11 17 -9 18 -18 12 -91 -4 -45 -11 -87 -16 -93 -6 -8 -75 -14 -192
-17 -103 -3 -215 -12 -257 -21 -41 -9 -96 -20 -122 -25 -27 -6 -55 -8 -63 -5
-19 8 -65 87 -65 114 0 15 38 62 110 136 175 183 282 330 358 494 42 90 49
172 18 196 -24 17 -83 18 -114 1 -29 -16 -123 -124 -170 -194 -22 -34 -42 -53
-54 -53 -18 0 -133 80 -150 105 -14 19 -8 32 43 101 117 157 234 248 354 278
40 10 121 -5 175 -32z m1698 1 c136 -69 189 -232 129 -397 -43 -117 -209 -385
-270 -435 -9 -7 -17 -22 -17 -32 0 -17 9 -19 113 -19 133 0 184 -7 191 -27 10
-25 -6 -154 -21 -169 -11 -11 -46 -14 -146 -14 -145 -1 -288 -18 -384 -45 -53
-15 -66 -16 -93 -5 -33 14 -70 72 -70 111 0 14 36 60 103 128 234 243 396 500
401 634 1 59 -18 77 -79 77 -55 0 -101 -40 -188 -163 -37 -52 -74 -98 -82
-101 -8 -3 -30 7 -48 23 -17 15 -47 36 -65 47 -73 42 -47 110 98 254 165 166
288 204 428 133z m-899 -39 c94 -51 145 -131 188 -293 68 -258 0 -576 -156
-731 -72 -72 -112 -90 -195 -90 -78 0 -120 15 -193 70 -42 32 -60 56 -93 122
-90 184 -91 363 -3 633 51 158 117 250 216 300 70 36 159 31 236 -11z m1707 7
c141 -67 192 -206 123 -337 -16 -33 -55 -84 -85 -114 -30 -31 -54 -62 -54 -69
0 -7 20 -31 44 -53 25 -21 57 -63 72 -93 23 -47 26 -64 22 -127 -6 -130 -84
-239 -213 -299 -54 -26 -76 -31 -143 -31 -95 0 -156 15 -187 46 -25 25 -39 87
-33 146 3 31 6 35 28 32 14 -2 63 -4 110 -5 77 -2 90 1 139 28 70 38 95 72 86
113 -15 72 -93 108 -210 98 -38 -3 -75 -2 -82 2 -6 4 -23 38 -37 76 -25 71
-23 106 8 106 19 0 211 96 263 131 79 55 105 124 58 155 -37 24 -95 13 -188
-36 -44 -23 -88 -40 -99 -38 -26 4 -100 123 -96 152 4 26 98 78 213 118 109
38 180 38 261 -1z"/>
<path d="M9933 13234 c-85 -44 -103 -61 -152 -143 -79 -133 -106 -284 -85
-474 17 -149 44 -211 117 -269 80 -63 130 -82 217 -82 84 1 162 26 227 73 45
33 100 130 140 248 23 69 26 94 26 213 1 161 -20 244 -82 331 -68 95 -155 139
-277 139 -52 0 -74 -6 -131 -36z m238 -84 c93 -26 163 -114 163 -204 0 -43 -6
-61 -38 -109 -21 -32 -53 -69 -71 -83 -18 -14 -36 -32 -40 -41 -6 -16 32 -79
97 -161 15 -19 28 -47 28 -62 0 -35 -47 -79 -93 -87 -33 -5 -38 -3 -54 27 -10
18 -32 52 -49 75 -18 23 -35 51 -38 61 -4 11 -15 30 -26 44 -31 41 -45 14 -45
-88 0 -48 -4 -93 -8 -99 -10 -16 -112 -17 -156 -2 -21 8 -31 18 -32 32 -2 58
4 388 10 507 l6 135 58 28 c90 43 195 53 288 27z"/>
<path d="M10031 12974 c-20 -25 -22 -38 -19 -96 4 -75 8 -83 36 -74 20 7 94
97 105 128 9 25 -23 58 -64 64 -31 5 -39 2 -58 -22z"/>
<path d="M16284 13052 c-67 -42 -132 -389 -105 -554 17 -101 74 -198 116 -198
43 0 98 117 124 264 22 124 8 323 -31 421 -23 61 -69 90 -104 67z"/>
</g>
</svg>
